<?xml version="1.0" encoding="utf-8"?>
<svg xmlns="http://www.w3.org/2000/svg" fill="none" height="42" overflow="visible" preserveAspectRatio="none" style="display: block;" viewBox="0 0 125.281 42" width="125.281">
<g id="HT Logo">
<g id="Healthy Together">
<path d="M49.4791 17.5H52.1385V12.2425H57.5371V17.5H60.1904V4.77271H57.5371V10.0239H52.1385V4.77271H49.4791V17.5Z" fill="var(--fill-0, white)"/>
<path d="M66.6332 17.6864C68.9671 17.6864 70.5394 16.5367 70.9079 14.7656L68.488 14.604C68.2239 15.3311 67.5483 15.7102 66.6762 15.7102C65.3679 15.7102 64.5388 14.834 64.5388 13.4108V13.4046H70.9631V12.6775C70.9631 9.43357 69.0223 7.83023 66.5288 7.83023C63.7526 7.83023 61.9531 9.82508 61.9531 12.7708C61.9531 15.7972 63.7281 17.6864 66.6332 17.6864ZM64.5388 11.764C64.5941 10.6765 65.4109 9.80644 66.5717 9.80644C67.708 9.80644 68.4941 10.6268 68.5003 11.764H64.5388Z" fill="var(--fill-0, white)"/>
<path d="M75.3607 17.6802C76.7549 17.6802 77.6577 17.065 78.1184 16.1763H78.1921V17.5H80.6734V11.0618C80.6734 8.78726 78.7694 7.83023 76.6689 7.83023C74.4087 7.83023 72.9224 8.92398 72.56 10.664L74.9799 10.8629C75.158 10.229 75.7169 9.76294 76.6566 9.76294C77.5472 9.76294 78.0569 10.2166 78.0569 10.9996V11.0369C78.0569 11.6521 77.4121 11.7329 75.7722 11.8945C73.9051 12.0685 72.2284 12.7024 72.2284 14.834C72.2284 16.7232 73.5611 17.6802 75.3607 17.6802ZM76.11 15.8531C75.3054 15.8531 74.7281 15.4741 74.7281 14.747C74.7281 14.0012 75.3361 13.6346 76.2574 13.5041C76.8286 13.4233 77.7621 13.2866 78.0754 13.0753V14.0882C78.0754 15.0888 77.2585 15.8531 76.11 15.8531Z" fill="var(--fill-0, white)"/>
<path d="M85.3196 4.77271H82.7032V17.5H85.3196V4.77271Z" fill="var(--fill-0, white)"/>
<path d="M92.4334 7.95452H90.6584V5.66759H88.042V7.95452H86.7522V9.94316H88.042V14.9148C88.0297 16.7853 89.2888 17.7113 91.1866 17.6305C91.8622 17.6056 92.3413 17.4689 92.6054 17.3819L92.1939 15.4119C92.0649 15.4368 91.7885 15.4989 91.5428 15.4989C91.0208 15.4989 90.6584 15.3 90.6584 14.5667V9.94316H92.4334V7.95452Z" fill="var(--fill-0, white)"/>
<path d="M96.9569 11.9815C96.963 10.751 97.7062 10.0302 98.7748 10.0302C99.8374 10.0302 100.464 10.72 100.458 11.8945V17.5H103.074V11.4222C103.08 9.18499 101.778 7.83023 99.8128 7.83023C98.3818 7.83023 97.4236 8.51383 96.9937 9.63865H96.8832V4.77271H94.3404V17.5H96.9569V11.9815Z" fill="var(--fill-0, white)"/>
<path d="M106.411 21.0609C108.358 21.0609 109.396 20.0603 109.924 18.5316L113.59 7.96695L110.82 7.95452L108.849 14.9645H108.751L106.798 7.95452H104.046L107.43 17.7734L107.277 18.1774C106.908 19.0412 106.276 19.1033 105.354 18.8112L104.765 20.7937C105.139 20.949 105.747 21.0609 106.411 21.0609Z" fill="var(--fill-0, white)"/>
<path d="M49 26.8246H52.8509V37.3333H55.4796V26.8246H59.3305V24.606H49V26.8246Z" fill="var(--fill-0, white)"/>
<path d="M63.877 37.5197C66.7391 37.5197 68.5202 35.5373 68.5202 32.5979C68.5202 29.6398 66.7391 27.6636 63.877 27.6636C61.0149 27.6636 59.2338 29.6398 59.2338 32.5979C59.2338 35.5373 61.0149 37.5197 63.877 37.5197ZM63.8893 35.469C62.5688 35.469 61.8932 34.2447 61.8932 32.5792C61.8932 30.9137 62.5688 29.6833 63.8893 29.6833C65.1852 29.6833 65.8608 30.9137 65.8608 32.5792C65.8608 34.2447 65.1852 35.469 63.8893 35.469Z" fill="var(--fill-0, white)"/>
<path d="M74.4717 41.0496C77.1679 41.0496 79.0842 39.8067 79.0842 37.4265V27.7879H76.4862V29.3912H76.3879C76.0378 28.6144 75.2701 27.6636 73.6916 27.6636C71.6219 27.6636 69.8714 29.2918 69.8714 32.5419C69.8714 35.7175 71.5727 37.1966 73.6978 37.1966C75.2025 37.1966 76.044 36.4322 76.3879 35.643H76.4985V37.3892C76.4985 38.6384 75.6693 39.1479 74.5331 39.1479C73.3784 39.1479 72.7949 38.6384 72.58 38.1226L70.1601 38.4519C70.4733 39.8937 71.9289 41.0496 74.4717 41.0496ZM74.5269 35.208C73.2433 35.208 72.5431 34.1764 72.5431 32.5295C72.5431 30.9075 73.231 29.7703 74.5269 29.7703C75.7983 29.7703 76.5107 30.8578 76.5107 32.5295C76.5107 34.2136 75.786 35.208 74.5269 35.208Z" fill="var(--fill-0, white)"/>
<path d="M85.4655 37.5197C87.7994 37.5197 89.3717 36.3701 89.7402 34.5989L87.3203 34.4374C87.0562 35.1645 86.3806 35.5435 85.5085 35.5435C84.2003 35.5435 83.3712 34.6673 83.3712 33.2442V33.238H89.7955V32.5109C89.7955 29.2669 87.8547 27.6636 85.3611 27.6636C82.585 27.6636 80.7854 29.6584 80.7854 32.6041C80.7854 35.6305 82.5604 37.5197 85.4655 37.5197ZM83.3712 31.5973C83.4264 30.5098 84.2433 29.6398 85.4041 29.6398C86.5403 29.6398 87.3265 30.4601 87.3326 31.5973H83.3712Z" fill="var(--fill-0, white)"/>
<path d="M96.5208 27.7879H94.7458V25.5009H92.1294V27.7879H90.8396V29.7765H92.1294V34.7481C92.1171 36.6186 93.3762 37.5446 95.274 37.4638C95.9496 37.439 96.4287 37.3022 96.6928 37.2152L96.2813 35.2452C96.1523 35.2701 95.8759 35.3322 95.6302 35.3322C95.1082 35.3322 94.7458 35.1334 94.7458 34.4001V29.7765H96.5208V27.7879Z" fill="var(--fill-0, white)"/>
<path d="M101.044 31.8148C101.05 30.5844 101.794 29.8635 102.862 29.8635C103.925 29.8635 104.551 30.5533 104.545 31.7278V37.3333H107.161V31.2555C107.168 29.0183 105.866 27.6636 103.9 27.6636C102.469 27.6636 101.511 28.3472 101.081 29.472H100.971V24.606H98.4278V37.3333H101.044V31.8148Z" fill="var(--fill-0, white)"/>
<path d="M113.52 37.5197C115.854 37.5197 117.426 36.3701 117.795 34.5989L115.375 34.4374C115.111 35.1645 114.435 35.5435 113.563 35.5435C112.255 35.5435 111.425 34.6673 111.425 33.2442V33.238H117.85V32.5109C117.85 29.2669 115.909 27.6636 113.415 27.6636C110.639 27.6636 108.84 29.6584 108.84 32.6041C108.84 35.6305 110.615 37.5197 113.52 37.5197ZM111.425 31.5973C111.481 30.5098 112.298 29.6398 113.458 29.6398C114.595 29.6398 115.381 30.4601 115.387 31.5973H111.425Z" fill="var(--fill-0, white)"/>
<path d="M119.557 37.3333H122.174V31.9329C122.174 30.7584 123.021 29.9505 124.176 29.9505C124.538 29.9505 125.036 30.0126 125.281 30.0934V27.7444C125.048 27.6884 124.722 27.6511 124.458 27.6511C123.402 27.6511 122.536 28.2726 122.192 29.4533H122.094V27.7879H119.557V37.3333Z" fill="var(--fill-0, white)"/>
</g>
<g id="Frame">
<g clip-path="url(#clip0_0_30541)">
<path d="M42 21C42 9.40202 32.598 0 21 0C9.40202 0 0 9.40202 0 21C0 32.598 9.40202 42 21 42C32.598 42 42 32.598 42 21Z" fill="var(--fill-0, white)" id="Vector"/>
<mask height="42" id="mask0_0_30541" maskUnits="userSpaceOnUse" style="mask-type:alpha" width="42" x="0" y="0">
<path d="M42 21C42 9.40202 32.598 0 21 0C9.40202 0 0 9.40202 0 21C0 32.598 9.40202 42 21 42C32.598 42 42 32.598 42 21Z" fill="var(--fill-0, white)" id="Vector_2"/>
</mask>
<g mask="url(#mask0_0_30541)">
<path d="M21 0.375C32.3909 0.375 41.625 9.60913 41.625 21C41.625 32.3909 32.3909 41.625 21 41.625C9.60913 41.625 0.375 32.3909 0.375 21C0.375 9.60913 9.60913 0.375 21 0.375Z" fill="url(#paint0_linear_0_30541)" id="Vector_3" stroke="var(--stroke-0, #ECFAFE)" stroke-width="0.75"/>
<path d="M21.0308 35.8887C28.4556 39.4607 42 39.1288 42 39.1288V42H0V15.8744C1.16702 14.0733 2.50533 12.9199 4.30407 12.9199C7.74048 12.9199 9.32278 17.0281 11.1853 21.8639C13.2145 27.1323 15.5763 33.2646 21.0308 35.8887Z" fill="var(--fill-0, #9EEDFE)" id="Vector_4"/>
<path d="M21.0308 35.8887C28.4556 39.4607 42 39.1288 42 39.1288V42H0V15.8744C1.16702 14.0733 2.50533 12.9199 4.30407 12.9199C7.74048 12.9199 9.32278 17.0281 11.1853 21.8639C13.2145 27.1323 15.5763 33.2646 21.0308 35.8887Z" fill="url(#paint1_linear_0_30541)" id="Vector_5"/>
<path d="M28.1945 31.7332C31.316 33.9886 35.0035 36.653 42 38.1898V42.0001H0V36.3686C3.57787 34.9666 5.96572 33.2376 8.0955 31.6956C11.0916 29.5261 13.5771 27.7266 18.1464 27.7266C22.6497 27.7266 25.1536 29.5358 28.1945 31.7332Z" fill="url(#paint2_linear_0_30541)" id="Vector_6"/>
<g id="Group">
<path d="M26.9063 23.4609C27.0918 23.4609 27.3572 23.3368 27.5514 23.2215C32.5281 20.0287 35.6837 16.3126 35.6837 12.5345C35.6837 9.39492 33.5356 7.17773 30.7601 7.17773C29.0366 7.17773 27.7107 8.13557 26.9063 9.59892C26.1196 8.14443 24.7759 7.17773 23.0524 7.17773C20.2769 7.17773 18.1289 9.39492 18.1289 12.5345C18.1289 16.3126 21.2845 20.0287 26.2698 23.2215C26.4553 23.3368 26.7208 23.4609 26.9063 23.4609Z" fill="url(#paint3_linear_0_30541)" id="Vector_7"/>
</g>
</g>
</g>
</g>
</g>
<defs>
<linearGradient gradientUnits="userSpaceOnUse" id="paint0_linear_0_30541" x1="21" x2="-9.38773e-07" y1="-6.25849e-07" y2="42">
<stop stop-color="white"/>
<stop offset="1" stop-color="#F0FBFB"/>
</linearGradient>
<linearGradient gradientUnits="userSpaceOnUse" id="paint1_linear_0_30541" x1="10.9922" x2="3.71192" y1="50.9005" y2="10.3134">
<stop stop-color="#4541FE"/>
<stop offset="0.717933" stop-color="#41DCFE" stop-opacity="0"/>
</linearGradient>
<linearGradient gradientUnits="userSpaceOnUse" id="paint2_linear_0_30541" x1="19.363" x2="22.7973" y1="42.9291" y2="28.2822">
<stop stop-color="#4541FE"/>
<stop offset="0.975281" stop-color="#41DCFE" stop-opacity="0.5"/>
</linearGradient>
<linearGradient gradientUnits="userSpaceOnUse" id="paint3_linear_0_30541" x1="28.7505" x2="39.0883" y1="30.1825" y2="11.9836">
<stop stop-color="#F919E3"/>
<stop offset="1" stop-color="#FA3939"/>
</linearGradient>
<clipPath id="clip0_0_30541">
<rect fill="white" height="42" rx="21" width="42"/>
</clipPath>
</defs>
</svg>